<svg width="53" height="53" viewBox="0 0 53 53" fill="none" xmlns="http://www.w3.org/2000/svg">
<path d="M6.625 6.625H46.375V16.3085H41.9583V11.0417H11.0417V30.9167H20.6104V35.3333H6.625V6.625Z" fill="white"/>
<path d="M28.0106 22.7171C29.9406 24.7598 31.5858 26.5 35.3334 26.5H39.7501C40.9214 26.5 42.0448 26.9653 42.8731 27.7936C43.7014 28.6219 44.1667 29.7453 44.1667 30.9166V33.125C44.1667 33.9002 43.9626 34.6618 43.575 35.3332C43.1873 36.0046 42.6298 36.5622 41.9584 36.9498V48.5833H35.3334V30.9166C29.5542 30.9166 26.5972 27.7145 24.6451 25.6056C24.3804 25.3148 24.1102 25.0292 23.8346 24.7488L26.9572 21.6262C27.3238 21.9942 27.6749 22.3579 28.0106 22.7171ZM41.9584 20.9791C41.9584 21.8577 41.6094 22.7002 40.9882 23.3214C40.367 23.9426 39.5244 24.2916 38.6459 24.2916C37.7674 24.2916 36.9248 23.9426 36.3036 23.3214C35.6824 22.7002 35.3334 21.8577 35.3334 20.9791C35.3334 20.1006 35.6824 19.258 36.3036 18.6368C36.9248 18.0156 37.7674 17.6666 38.6459 17.6666C39.5244 17.6666 40.367 18.0156 40.9882 18.6368C41.6094 19.258 41.9584 20.1006 41.9584 20.9791Z" fill="white"/>
</svg>
