<svg width="53" height="53" viewBox="0 0 53 53" fill="none" xmlns="http://www.w3.org/2000/svg">
<path fill-rule="evenodd" clip-rule="evenodd" d="M14.3142 21.4713C14.3139 19.9198 14.7234 18.3957 15.5013 17.0533C16.2791 15.7109 17.3977 14.5977 18.7439 13.8264C18.7285 12.8582 18.7201 11.7362 18.7186 10.4604C18.7186 7.65147 18.767 5.61004 18.8177 4.24469C18.865 2.92337 19.758 1.83659 21.0749 1.72869C21.6365 1.68354 22.317 1.65161 23.123 1.65161C23.929 1.65161 24.6094 1.68354 25.171 1.72869C26.4879 1.83659 27.3809 2.92337 27.4282 4.24469C27.4789 5.61004 27.5273 7.65147 27.5273 10.4604C27.5266 11.7362 27.5182 12.8582 27.502 13.8264C28.8447 14.5957 29.961 15.705 30.7386 17.0429C31.5163 18.3807 31.9278 19.8998 31.9317 21.4472C31.9356 22.9946 31.5318 24.5158 30.761 25.8575C29.9902 27.1993 28.8795 28.3143 27.5407 29.0904C26.202 29.8665 24.6824 30.2762 23.135 30.2783C21.5876 30.2804 20.0669 29.8749 18.726 29.1024C17.3852 28.33 16.2715 27.2181 15.497 25.8784C14.7225 24.5387 14.3145 23.0187 14.3142 21.4713ZM30.8251 12.123C30.8288 11.6018 30.8306 11.0476 30.8306 10.4604C30.8306 7.61403 30.7822 5.53186 30.7304 4.12356C30.7133 3.66825 30.6457 3.21625 30.5289 2.77583C38.6197 5.53296 44.4721 13.0545 44.6548 21.9602L48.9271 27.9171C49.6901 28.9818 49.6098 30.5377 48.371 31.2963C47.4318 31.8689 46.0598 32.5373 44.2188 33.0251L43.5846 40.5455C43.5411 41.0624 43.3936 41.5652 43.1512 42.0238C42.9087 42.4824 42.5761 42.8873 42.1733 43.2142C41.7706 43.5412 41.306 43.7835 40.8074 43.9266C40.3088 44.0697 39.7864 44.1106 39.2716 44.047L36.4968 43.7035V46.9153C36.4968 48.5747 35.4167 50.0755 33.7232 50.3893C31.6851 50.7692 28.3454 51.2008 23.7054 51.2008C19.0654 51.2008 15.7269 50.7692 13.6877 50.3893C11.9953 50.0744 10.9129 48.5747 10.9129 46.9153V38.8135C5.95362 35.0235 2.75275 29.0765 2.75275 22.3885C2.75275 13.7735 8.06001 6.38961 15.6102 3.257C15.5588 3.54329 15.5273 3.83214 15.5155 4.12356C15.4638 5.53186 15.4153 7.61403 15.4153 10.4604C15.4153 11.0476 15.4172 11.6018 15.4208 12.123C14.0405 13.2584 12.929 14.6857 12.1665 16.3021C11.404 17.9186 11.0093 19.684 11.0109 21.4713C11.0109 27.9303 16.0672 33.2089 22.437 33.5646C26.0354 36.9053 31.2711 39.0888 36.3361 39.0888C36.7741 39.0888 37.1942 38.9148 37.504 38.605C37.8137 38.2953 37.9877 37.8752 37.9877 37.4371C37.9877 36.9991 37.8137 36.579 37.504 36.2692C37.1942 35.9595 36.7741 35.7855 36.3361 35.7855C33.1187 35.7855 29.7637 34.7031 27.0186 32.9436C31.7974 31.3217 35.235 26.7973 35.235 21.4713C35.2366 19.684 34.842 17.9186 34.0794 16.3021C33.3169 14.6857 32.2055 13.2584 30.8251 12.123Z" fill="white"/>
</svg>
